0
SECTION
2
HEADER
9
$INSUNITS
70
4
9
$ACADVER
1
AC1014
9
$HANDSEED
5
FFFF
0
ENDSEC
0
SECTION
2
TABLES
0
TABLE
2
VPORT
5
8
100
AcDbSymbolTable
0
ENDTAB
0
TABLE
2
LTYPE
5
5
100
AcDbSymbolTable
0
LTYPE
5
14
100
AcDbSymbolTableRecord
100
AcDbLinetypeTableRecord
2
BYBLOCK
70
0
0
LTYPE
5
15
100
AcDbSymbolTableRecord
100
AcDbLinetypeTableRecord
2
BYLAYER
70
0
0
ENDTAB
0
TABLE
2
LAYER
5
2
100
AcDbSymbolTable
70
2
0
LAYER
5
50
100
AcDbSymbolTableRecord
100
AcDbLayerTableRecord
2
0
70
0
6
CONTINUOUS
0
ENDTAB
0
TABLE
2
STYLE
5
3
100
AcDbSymbolTable
70
1
0
STYLE
5
11
100
AcDbSymbolTableRecord
100
AcDbTextStyleTableRecord
2
STANDARD
70
0
0
ENDTAB
0
TABLE
2
VIEW
5
6
100
AcDbSymbolTable
70
0
0
ENDTAB
0
TABLE
2
UCS
5
7
100
AcDbSymbolTable
70
0
0
ENDTAB
0
TABLE
2
APPID
5
9
100
AcDbSymbolTable
70
2
0
APPID
5
12
100
AcDbSymbolTableRecord
100
AcDbRegAppTableRecord
2
ACAD
70
0
0
ENDTAB
0
TABLE
2
DIMSTYLE
5
A
100
AcDbSymbolTable
70
1
0
ENDTAB
0
TABLE
2
BLOCK_RECORD
5
1
100
AcDbSymbolTable
70
1
0
BLOCK_RECORD
5
1F
100
AcDbSymbolTableRecord
100
AcDbBlockTableRecord
2
*MODEL_SPACE
0
BLOCK_RECORD
5
1B
100
AcDbSymbolTableRecord
100
AcDbBlockTableRecord
2
*PAPER_SPACE
0
ENDTAB
0
ENDSEC
0
SECTION
2
BLOCKS
0
BLOCK
5
20
100
AcDbEntity
100
AcDbBlockBegin
2
*MODEL_SPACE
0
ENDBLK
5
21
100
AcDbEntity
100
AcDbBlockEnd
0
BLOCK
5
1C
100
AcDbEntity
100
AcDbBlockBegin
2
*PAPER_SPACE
0
ENDBLK
5
1D
100
AcDbEntity
100
AcDbBlockEnd
0
ENDSEC
0
SECTION
2
ENTITIES
0
LWPOLYLINE
5
100
100
AcDbEntity
8
0
100
AcDbPolyline
90
16
70
1
43
0.0
10
98.426759239623493
20
33.573242727329784
10
60.000000894069672
20
-4.8535156182240957
10
60.000000894069672
20
-53.184332157819263
10
98.784235503979801
20
-91.968566767729385
10
92.911041124438768
20
-97.841761147270404
10
56.069279992069468
20
-61.000000014901161
10
5.7586271378173759
20
-61.000000014901161
10
-32.41892667458437
20
-99.17755382730293
10
-38.173793153954158
20
-93.422687347933149
10
4.4408920985006262e-15
20
-55.248894193978956
10
1.6653345369377348e-15
20
-6.0000000894069672
10
-38.000000566244125
20
32.000000476837158
10
-33.000000491738319
20
37.000000551342964
10
4.0000000596046448
20
0
10
54.00000080466274
20
2.7755575615628914e-16
10
93.000001385807991
20
39.000000581145287
0
CIRCLE
5
101
100
AcDbEntity
8
0
100
AcDbCircle
10
-35.161165990801713
20
40.000000549480319
30
0
40
1.1200000000000008
210
0
220
-0
230
1
0
CIRCLE
5
102
100
AcDbEntity
8
0
100
AcDbCircle
10
-35.161165990801713
20
-100.00000153668228
30
0
40
1.1200000000000008
210
0
220
-0
230
1
0
CIRCLE
5
103
100
AcDbEntity
8
0
100
AcDbCircle
10
100.33883609536083
20
-95.500001536682248
30
0
40
1.1200000000000008
210
0
220
-0
230
1
0
CIRCLE
5
104
100
AcDbEntity
8
0
100
AcDbCircle
10
100.33883609536083
20
-104.50000153668226
30
0
40
1.1200000000000008
210
0
220
-0
230
1
0
CIRCLE
5
105
100
AcDbEntity
8
0
100
AcDbCircle
10
100.33883609536088
20
44.500000549480305
30
0
40
1.1200000000000008
210
0
220
-0
230
1
0
CIRCLE
5
106
100
AcDbEntity
8
0
100
AcDbCircle
10
100.33883609536088
20
40.000000549480305
30
0
40
0.99999999999999645
210
0
220
-0
230
1
0
CIRCLE
5
107
100
AcDbEntity
8
0
100
AcDbCircle
10
95.838836095360847
20
-100.00000153668225
30
0
40
1.1200000000000008
210
0
220
-0
230
1
0
CIRCLE
5
108
100
AcDbEntity
8
0
100
AcDbCircle
10
-39.66116599080172
20
-104.50000153668228
30
0
40
1.1200000000000008
210
0
220
-0
230
1
0
CIRCLE
5
109
100
AcDbEntity
8
0
100
AcDbCircle
10
-39.66116599080172
20
-95.500001536682291
30
0
40
1.1200000000000008
210
0
220
-0
230
1
0
CIRCLE
5
110
100
AcDbEntity
8
0
100
AcDbCircle
10
-39.66116599080172
20
44.500000549480319
30
0
40
1.1200000000000008
210
0
220
-0
230
1
0
CIRCLE
5
111
100
AcDbEntity
8
0
100
AcDbCircle
10
-39.66116599080172
20
40.000000549480319
30
0
40
0.99999999999999645
210
0
220
-0
230
1
0
CIRCLE
5
112
100
AcDbEntity
8
0
100
AcDbCircle
10
-39.66116599080172
20
-100.00000153668228
30
0
40
0.99999999999999645
210
0
220
-0
230
1
0
CIRCLE
5
113
100
AcDbEntity
8
0
100
AcDbCircle
10
104.83883609536085
20
-100.00000153668225
30
0
40
1.1200000000000008
210
0
220
-0
230
1
0
CIRCLE
5
114
100
AcDbEntity
8
0
100
AcDbCircle
10
95.838836095360875
20
40.000000549480305
30
0
40
1.1200000000000008
210
0
220
-0
230
1
0
CIRCLE
5
115
100
AcDbEntity
8
0
100
AcDbCircle
10
104.83883609536086
20
40.000000549480305
30
0
40
1.1200000000000008
210
0
220
-0
230
1
0
CIRCLE
5
116
100
AcDbEntity
8
0
100
AcDbCircle
10
100.33883609536088
20
35.500000549480298
30
0
40
1.1200000000000008
210
0
220
-0
230
1
0
CIRCLE
5
117
100
AcDbEntity
8
0
100
AcDbCircle
10
100.33883609536083
20
-100.00000153668225
30
0
40
0.99999999999999645
210
0
220
-0
230
1
0
CIRCLE
5
118
100
AcDbEntity
8
0
100
AcDbCircle
10
-44.16116599080172
20
-100.00000153668228
30
0
40
1.1200000000000008
210
0
220
-0
230
1
0
CIRCLE
5
119
100
AcDbEntity
8
0
100
AcDbCircle
10
-39.66116599080172
20
35.500000549480319
30
0
40
1.1200000000000008
210
0
220
-0
230
1
0
CIRCLE
5
120
100
AcDbEntity
8
0
100
AcDbCircle
10
-44.16116599080172
20
40.000000549480319
30
0
40
1.1200000000000008
210
0
220
-0
230
1
0
LWPOLYLINE
5
121
100
AcDbEntity
8
0
100
AcDbPolyline
90
20
70
1
43
0.0
10
48.000000789761536
20
5
10
12.000000104308128
20
5
10
12.677669455157883
20
5.6776693508497544
10
-29.748737416034963
20
48.1040762220426
42
0.99999998709521587
10
-47.426407131963153
20
30.426406878643419
10
-5.000000074505806
20
-12.000000178813934
10
-5.000000074505806
20
-48.000000715255737
10
-47.426406945698652
20
-90.426407586448576
42
0.9999999925494194
10
-29.748737416034949
20
-108.10407711611222
10
12.677669455157892
20
-65.677670244919426
10
11.999999210238464
20
-65
10
48.000000715255737
20
-65.000000968575478
10
90.42640758644859
20
-107.42640783976833
42
0.9999999925494194
10
108.10407711611225
20
-89.748738310104685
10
65.677670244919426
20
-47.322331438911789
10
65.000000968575478
20
-48.000000715255737
10
65.000000968575478
20
-12.000000178813934
10
107.42640783976832
20
30.426406692378912
42
0.99999998509883881
10
89.748738496369143
20
48.104076408307108
10
47.322331438911789
20
5.6776693508497456
0
CIRCLE
5
122
100
AcDbEntity
8
0
100
AcDbCircle
10
62.500000931322582
20
-4.747417400079728
30
0
40
0.99999999999999978
210
0
220
0
230
1
0
LINE
5
123
100
AcDbEntity
8
0
100
AcDbLine
10
62.500000931322582
20
-4.747417400079728
30
0
11
62.500000931322582
21
-52.801209898093163
31
0
0
LINE
5
124
100
AcDbEntity
8
0
100
AcDbLine
10
62.500000931322582
20
-52.801209898093163
30
0
11
65
21
-52.801209898093163
31
0
0
CIRCLE
5
125
100
AcDbEntity
8
0
100
AcDbCircle
10
62.500000931322582
20
-52.801209898093163
30
0
40
0.99999999999999645
210
0
220
0
230
1
0
LINE
5
126
100
AcDbEntity
8
0
100
AcDbLine
10
62.500000931322582
20
-4.747417400079728
30
0
11
-2.9934732019754682
21
-4.7474174000797289
31
0
0
LINE
5
127
100
AcDbEntity
8
0
100
AcDbLine
10
-2.9934732019754682
20
-4.7474174000797289
30
0
11
-3.0065268874315016
21
-7.1072464435202249
31
0
0
CIRCLE
5
128
100
AcDbEntity
8
0
100
AcDbCircle
10
-2.9934732019754682
20
-4.7474174000797289
30
0
40
1.0000000000000004
210
0
220
0
230
1
0
LINE
5
129
100
AcDbEntity
8
0
100
AcDbLine
10
62.500000931322582
20
-52.801209898093163
30
0
11
-3.0000000447034836
21
-52.801209898093163
31
0
0
LINE
5
130
100
AcDbEntity
8
0
100
AcDbLine
10
-3.0000000447034836
20
-52.801209898093163
30
0
11
-3.0000000447034858
21
-5.9273319217999765
31
0
0
LINE
5
131
100
AcDbEntity
8
0
100
AcDbLine
10
-2.9934732019754682
20
-4.7474174000797289
30
0
11
-3.5000000521540642
21
-4.7474174000797316
31
0
0
CIRCLE
5
132
100
AcDbEntity
8
0
100
AcDbCircle
10
-3.0000000447034836
20
-52.801209898093163
30
0
40
0.99999999999999822
210
0
220
0
230
1
0
ENDSEC
0
SECTION
2
OBJECTS
0
DICTIONARY
5
C
100
AcDbDictionary
3
ACAD_GROUP
350
D
3
ACAD_MLINESTYLE
350
17
0
DICTIONARY
5
D
100
AcDbDictionary
0
DICTIONARY
5
1A
330
C
100
AcDbDictionary
0
DICTIONARY
5
17
100
AcDbDictionary
0
ENDSEC
0
EOF
